<svg width="20" height="20" viewBox="0 0 20 20" fill="none" xmlns="http://www.w3.org/2000/svg">
<g clip-path="url(#clip0_437_7845)">
<mask id="mask0_437_7845" style="mask-type:alpha" maskUnits="userSpaceOnUse" x="0" y="0" width="20" height="20">
<rect width="20" height="20" fill="#D9D9D9"/>
</mask>
<g mask="url(#mask0_437_7845)">
<path d="M14.25 6.74479H12.75C12.5375 6.74479 12.3594 6.67271 12.2156 6.52854C12.0719 6.38451 12 6.20674 12 5.99521C12 5.78354 12.0719 5.60618 12.2156 5.46312C12.3594 5.31993 12.5375 5.24833 12.75 5.24833H14.25V3.75479C14.25 3.54326 14.3215 3.36458 14.4644 3.21875C14.6073 3.07292 14.7844 3 14.9956 3C15.2069 3 15.3845 3.07187 15.5285 3.21562C15.6727 3.35937 15.7448 3.5375 15.7448 3.75V5.25H17.2483C17.4612 5.25 17.6398 5.32187 17.784 5.46562C17.928 5.60937 18 5.7875 18 6C18 6.2125 17.928 6.39063 17.784 6.53438C17.6398 6.67813 17.4612 6.75 17.2483 6.75H15.7448V8.25C15.7448 8.4625 15.6727 8.64063 15.5285 8.78438C15.3845 8.92813 15.2083 9 15 9C14.7875 9 14.6094 8.92799 14.4656 8.78396C14.3219 8.63979 14.25 8.46125 14.25 8.24833V6.74479ZM6.99521 17C5.88729 17 4.94444 16.61 4.16667 15.83C3.38889 15.05 3 14.1067 3 13C3 12.3282 3.15278 11.7019 3.45833 11.1213C3.76389 10.5404 4.19444 10.0701 4.75 9.71021V5.24312C4.75 4.62271 4.96875 4.09375 5.40625 3.65625C5.84375 3.21875 6.375 3 7 3C7.625 3 8.15625 3.21875 8.59375 3.65625C9.03125 4.09375 9.25 4.625 9.25 5.25V9.70833C9.79167 10.0833 10.2188 10.559 10.5312 11.1354C10.8438 11.7118 11 12.3333 11 13C11 14.1067 10.6095 15.05 9.82854 15.83C9.04771 16.61 8.10326 17 6.99521 17ZM7 15.5C7.69444 15.5 8.28472 15.2569 8.77083 14.7708C9.25694 14.2847 9.5 13.6944 9.5 13C9.5 12.5972 9.40278 12.2153 9.20833 11.8542C9.01389 11.4931 8.74306 11.1944 8.39583 10.9583L7.75 10.5081V5.25646C7.75 5.04382 7.67854 4.86458 7.53562 4.71875C7.39271 4.57292 7.21562 4.5 7.00437 4.5C6.79312 4.5 6.61458 4.57187 6.46875 4.71562C6.32292 4.85937 6.25 5.0375 6.25 5.25V10.5L5.58333 10.9375C5.25 11.1736 4.98611 11.4719 4.79167 11.8323C4.59722 12.1927 4.5 12.5819 4.5 13C4.5 13.6944 4.74306 14.2847 5.22917 14.7708C5.71528 15.2569 6.30556 15.5 7 15.5Z" fill="#BAC8DE"/>
</g>
</g>
<defs>
<clipPath id="clip0_437_7845">
<rect width="20" height="20" fill="white"/>
</clipPath>
</defs>
</svg>
